<svg width="206" height="31" viewBox="0 0 206 31" fill="none" xmlns="http://www.w3.org/2000/svg">
<path d="M46.4678 30V0.217285L41.0001 0.217285V30H46.4678Z" fill="#222832"/>
<path d="M45.6732 1.01398H41.7991V29.2031H45.6732V1.01398Z" fill="#222832"/>
<path d="M63.6841 29.998V24.5303H41.6477V29.998H63.6841Z" fill="#222832"/>
<path d="M62.8855 29.2028V25.3286H42.4447V29.2028H62.8855Z" fill="#222832"/>
<path d="M63.6824 30V0.217285L58.2147 0.217285V30H63.6824Z" fill="#222832"/>
<path d="M62.8878 1.01398H59.0137V29.2031H62.8878V1.01398Z" fill="#222832"/>
<path d="M73.3657 30V0.217285L67.898 0.217285V30H73.3657Z" fill="#222832"/>
<path d="M72.569 1.01398H68.6948V29.2031H72.569V1.01398Z" fill="#222832"/>
<path d="M90.5803 29.9977V0.214966L85.1126 0.214966V29.9977H90.5803Z" fill="#222832"/>
<path d="M89.7836 1.01398H85.9094V29.2031H89.7836V1.01398Z" fill="#222832"/>
<path d="M100.694 29.9977V0.214966L95.2264 0.214966V29.9977H100.694Z" fill="#222832"/>
<path d="M99.8971 1.01398H96.0229V29.2031H99.8971V1.01398Z" fill="#222832"/>
<path d="M86.3107 28.4994L90.604 25.1136L72.1616 1.72801L67.8683 5.11379L86.3107 28.4994Z" fill="#222832"/>
<path d="M72.0408 2.83006L68.9988 5.22906L86.4544 27.3634L89.4964 24.9644L72.0408 2.83006Z" fill="#222832"/>
<path d="M130.174 29.9976V8.60687H124.706V29.9976H130.174Z" fill="#222832"/>
<path d="M129.375 9.40601H125.501V29.2032H129.375V9.40601Z" fill="#222832"/>
<path d="M140.286 29.9977V0.214966L134.818 0.214966V29.9977H140.286Z" fill="#222832"/>
<path d="M139.489 1.01398H135.615V29.2031H139.489V1.01398Z" fill="#222832"/>
<path d="M156.209 5.46966V0.00195312L134.819 0.00195313V5.46966L156.209 5.46966Z" fill="#222832"/>
<path d="M155.41 4.67288V0.798706L135.613 0.798706V4.67288L155.41 4.67288Z" fill="#222832"/>
<path d="M149.324 19.6709V14.2032H141.704V19.6709H149.324Z" fill="#222832"/>
<path d="M148.527 18.8741V14.9999H142.502V18.8741H148.527Z" fill="#222832"/>
<path d="M156.209 29.9976V0.214966L150.742 0.214966V29.9976H156.209Z" fill="#222832"/>
<path d="M155.412 1.01398H151.538V29.2031H155.412V1.01398Z" fill="#222832"/>
<path d="M173.639 29.9977V0.214966L168.171 0.214966V29.9977H173.639Z" fill="#222832"/>
<path d="M172.842 1.01398H168.968V29.2031H172.842V1.01398Z" fill="#222832"/>
<path d="M190.853 29.9977V0.214966L185.386 0.214966V29.9977H190.853Z" fill="#222832"/>
<path d="M190.057 1.01398H186.182V29.2031H190.057V1.01398Z" fill="#222832"/>
<path d="M182.892 5.46773V0L158.703 0V5.46773L182.892 5.46773Z" fill="#222832"/>
<path d="M182.093 4.67288V0.798706L159.5 0.798706V4.67288L182.093 4.67288Z" fill="#222832"/>
<path d="M205.915 5.46773V0L185.383 0V5.46773L205.915 5.46773Z" fill="#222832"/>
<path d="M205.117 4.67288V0.798706L186.18 0.798706V4.67288L205.117 4.67288Z" fill="#222832"/>
<path d="M205.915 17.7315V12.2638L185.383 12.2638V17.7315H205.915Z" fill="#222832"/>
<path d="M205.119 16.9366V13.0624L186.182 13.0624V16.9366H205.119Z" fill="#222832"/>
<path d="M205.915 29.998V24.5303H185.383V29.998H205.915Z" fill="#222832"/>
<path d="M205.116 29.2027V25.3286H186.18V29.2027H205.116Z" fill="#222832"/>
<path d="M110.377 29.9977V0.214966L104.91 0.214966V29.9977H110.377Z" fill="#222832"/>
<path d="M109.58 1.01398H105.706V29.2031H109.58V1.01398Z" fill="#222832"/>
<path d="M130.175 29.998V24.5303H105.125V29.998H130.175Z" fill="#222832"/>
<path d="M129.376 29.2032V25.329H105.922V29.2032H129.376Z" fill="#222832"/>
<path d="M116.186 5.6827V0.214966L105.123 0.214966V5.6827L116.186 5.6827Z" fill="#222832"/>
<path d="M115.39 4.88585V1.01172L105.922 1.01172V4.88585H115.39Z" fill="#222832"/>
<path d="M130.174 16.0116V10.5439H119.11V16.0116H130.174Z" fill="#222832"/>
<path d="M129.376 15.2173V11.3431H119.908V15.2173H129.376Z" fill="#222832"/>
<path d="M23.5024 6.34814V14.1437C23.5055 14.157 23.5072 14.1707 23.5073 14.1843H25.5375V6.34814H23.5024Z" fill="#FAA51F"/>
<path d="M19.8152 18.9857V26.2467C19.8181 26.259 19.8198 26.2716 19.8201 26.2843H21.8503V18.9857H19.8152Z" fill="#FAA51F"/>
<path d="M20.8136 15.7975H14.0496C14.0382 15.8006 14.0265 15.8023 14.0146 15.8024V17.8326H20.8136V15.7975Z" fill="#FAA51F"/>
<path d="M25.5395 15.7975H22.7499C22.7457 15.8004 22.7407 15.8021 22.7356 15.8024V17.8326H25.5395V15.7975Z" fill="#FAA51F"/>
<path d="M25.5395 24.2485H22.7499C22.7457 24.2514 22.7407 24.2531 22.7356 24.2534V26.2836H25.5395V24.2485Z" fill="#FAA51F"/>
<path d="M25.5395 20.023H22.7499C22.7457 20.0259 22.7407 20.0276 22.7356 20.0279V22.0581H25.5395V20.023Z" fill="#FAA51F"/>
<path d="M18.1568 14.1843L18.1632 14.1779V3.6972H10.4424L10.4402 12.1481H6.21699L6.21887 3.6972H4.18115V14.1843H12.4783V5.73342H16.1292V14.1843H18.1568Z" fill="#FAA51F"/>
<path d="M12.4783 17.8334H10.4424L10.4402 24.2484H6.21699L6.21887 15.7975H4.18115V26.2843H12.4783L12.4764 17.8334" fill="#FAA51F"/>
<path d="M16.1274 17.8334V26.2843H18.1576L18.164 26.2775V17.8334H16.1274Z" fill="#FAA51F"/>
<path d="M16.1274 17.8334H13.0547V15.7975H18.1633V17.8334" fill="#FAA51F"/>
<path d="M25.5383 3.69757H23.5024V5.42625H25.5383V3.69757Z" fill="#FAA51F"/>
<path d="M9.32832 6.69366H7.29248V8.7295H9.32832V6.69366Z" fill="#FAA51F"/>
<path d="M12.4782 18.9857H8.40649V21.0216H12.4782V18.9857Z" fill="#FAA51F"/>
<path d="M8.25283 15.7975H4.18115V17.8334H8.25283V15.7975Z" fill="#FAA51F"/>
<path d="M15.436 21.713H13.4001V23.7488H15.436V21.713Z" fill="#FAA51F"/>
<path d="M15.3208 9.11365H13.2849V11.1495H15.3208V9.11365Z" fill="#FAA51F"/>
<path d="M21.851 6.617H19.8152V8.65284H21.851V6.617Z" fill="#FAA51F"/>
<path d="M21.851 11.0729H19.8152V13.1087H21.851V11.0729Z" fill="#FAA51F"/>
<path d="M7.11397 0.000488281H0V1.99234H7.11397V0.000488281Z" fill="#222832"/>
<path d="M1.99243 7.11434L1.99243 0.000366211L0.000580192 0.000366211L0.000580192 7.11434H1.99243Z" fill="#222832"/>
<path d="M0.000488281 22.8453L0.000488281 29.9593H1.99234L1.99234 22.8453H0.000488281Z" fill="#222832"/>
<path d="M7.11397 27.9675H0V29.9593H7.11397V27.9675Z" fill="#222832"/>
<path d="M22.886 30.041H30V28.0491H22.886V30.041Z" fill="#222832"/>
<path d="M28.0081 22.927V30.041H29.9999V22.927H28.0081Z" fill="#222832"/>
<path d="M30 7.11397V0L28.0081 0V7.11397H30Z" fill="#222832"/>
<path d="M22.886 1.99188L30 1.99188V3.06368e-05L22.886 3.06368e-05V1.99188Z" fill="#222832"/>
</svg>
